<svg width="1172" height="967" version="1.1" xmlns="http://www.w3.org/2000/svg" desc="Created with imagetracer.js version 1.2.6" ><path fill="rgb(5,5,5)" stroke="rgb(5,5,5)" stroke-width="1" opacity="0.984313725490196" d="M 565.5 32 L 594.5 32 Q 596.3 34.8 602.5 33 L 613.5 35 L 635.5 42 Q 669.7 56.3 692 82.5 Q 709 101.5 719 127.5 L 726 152.5 L 727 167.5 L 728 168.5 L 728 190.5 L 727 191.5 L 726 206.5 L 722 222.5 L 709 252.5 Q 696.2 274.7 677.5 291 Q 660.4 306.4 637.5 316 Q 620.4 323.6 599 326 L 599 406.5 L 601.5 407 L 637.5 421 L 665.5 430 L 676.5 435 L 690.5 439 L 726.5 453 L 740.5 457 L 801.5 480 L 981.5 544 L 997.5 552 L 1020 569 L 1020 571 L 1022 571 L 1022 573 Q 1024.7 571.9 1024 574.5 Q 1045.9 595.3 1055 628 L 1016.5 628 L 1015 626.5 Q 1005.6 603.9 987.5 590 L 977.5 583 L 959.5 575 L 942.5 570 L 931.5 565 L 903.5 556 L 834.5 530 L 831.5 530 L 759.5 503 L 742.5 498 L 720.5 489 L 706.5 485 L 673.5 472 L 670.5 472 L 579.5 439 L 193.5 578 Q 173.1 586.6 160 602.5 L 143.5 628 L 105 627.5 Q 117.7 587.7 146.5 564 Q 161.5 551 181.5 543 L 231.5 526 L 306.5 498 L 309.5 498 L 378.5 472 L 492.5 432 L 503.5 427 L 517.5 423 L 558.5 408 L 562 405.5 L 562 304.5 L 567.5 295 L 577.5 290 L 599.5 289 Q 614 286.5 625.5 281 Q 648.5 270.5 664 252.5 Q 679.4 235.4 687 210.5 L 691 190.5 L 691 168.5 L 687 148.5 L 677 124.5 Q 667.1 107.4 652.5 95 Q 635.9 80.6 612.5 73 L 593.5 69 L 567.5 69 L 548.5 73 L 528.5 81 Q 508.1 92.1 494 109.5 Q 482.9 122.9 476 140.5 L 471 158.5 L 469 185.5 L 461.5 195 L 453.5 198 L 448.5 198 Q 440 196.5 436 190.5 L 433 184.5 L 433 163.5 L 438 138.5 L 444 121.5 Q 456.5 93 477.5 73 Q 495.1 56.1 518.5 45 L 543.5 36 L 565.5 32 Z " /><path fill="rgb(5,5,5)" stroke="rgb(5,5,5)" stroke-width="1" opacity="0.984313725490196" d="M 619.5 668 Q 627.8 666.7 630 671.5 L 631 676.5 L 630 677.5 L 628 697.5 L 622 725.5 L 614 750.5 L 608.5 758 Q 600.5 759.5 599 754.5 Q 596.7 751.3 598 744.5 L 594 733.5 L 586.5 700 L 582 709.5 L 570 747.5 L 565.5 754 L 559.5 755 L 555 751.5 L 555 743.5 L 562 721.5 L 572 699.5 L 581 685 L 584.5 683 L 591.5 683 Q 597.2 687.3 599 695.5 L 606.5 731 L 613 701.5 L 617 672.5 L 619.5 668 Z " /><path fill="rgb(5,5,5)" stroke="rgb(5,5,5)" stroke-width="1" opacity="0.984313725490196" d="M 259.5 669 Q 267.8 667.7 270 672.5 Q 271.1 680.1 266.5 682 L 261.5 685 L 251.5 687 Q 239.1 693.1 230 702.5 L 227 708.5 L 231.5 715 L 251.5 724 L 257 728.5 L 258 733.5 L 252.5 742 Q 239.5 753 218.5 756 L 213 752.5 L 212 745.5 L 214.5 743 L 231.5 739 L 243 734 Q 244.1 731.3 241.5 732 L 221.5 723 L 215 716.5 Q 212.5 713 214 705.5 Q 217.8 694.3 226.5 688 Q 241.3 676.8 259.5 669 Z " /><path fill="rgb(5,5,5)" stroke="rgb(5,5,5)" stroke-width="1" opacity="0.984313725490196" d="M 312.5 669 L 318 670 Q 319.9 672.7 319 679.5 L 312 705.5 L 316.5 706 L 317.5 705 L 327.5 705 L 328.5 704 L 343.5 703 L 346 700.5 L 352 677.5 L 356.5 672 L 360.5 671 L 365 674.5 L 366 681.5 L 361 701.5 Q 366 702.5 365 709.5 L 358 714.5 L 350 750.5 L 346.5 755 Q 340.3 756.3 339 752.5 L 338 750.5 L 338 734.5 L 341 717 L 328.5 719 L 308 720 L 300 749 L 293.5 750 L 290 744.5 L 290 731.5 L 298 699.5 L 307 673.5 L 310.5 670 L 312.5 669 Z " /><path fill="rgb(5,5,5)" stroke="rgb(5,5,5)" stroke-width="1" opacity="0.984313725490196" d="M 747.5 669 Q 754.3 668.1 757 670 L 759 676.5 L 757 681 L 749.5 685 Q 741.2 685.2 736.5 689 Q 725 695 717 704.5 L 716 710.5 L 721.5 716 L 741.5 725 L 746 729.5 Q 745.8 740.3 738.5 744 Q 726.2 753.2 707.5 756 L 702 754 L 700 747.5 L 701 744 L 722.5 738 L 732 732.5 L 711.5 724 L 705 718.5 Q 701.2 715.3 702 707.5 L 706 697.5 L 717.5 686 L 747.5 669 Z " /><path fill="rgb(5,5,5)" stroke="rgb(5,5,5)" stroke-width="1" opacity="0.984313725490196" d="M 103.5 670 Q 112.9 668.6 116 673.5 L 117 676.5 L 114.5 681 L 105.5 684 L 70.5 691 L 60 697.5 Q 57.3 699.8 58 705.5 L 59.5 705 L 75.5 702 L 83.5 702 L 91 706.5 Q 91.8 712.3 87.5 713 L 56 719 L 55 732.5 L 54 733.5 L 54 742.5 Q 53.1 749.1 48.5 752 Q 42.5 753.5 41 750.5 L 40 747.5 L 40 728.5 L 41 727.5 L 41 718.5 L 45 695.5 L 50.5 687 L 70.5 677 L 103.5 670 Z " /><path fill="rgb(5,5,5)" stroke="rgb(5,5,5)" stroke-width="1" opacity="0.984313725490196" d="M 995.5 671 Q 1012 669 1018 677.5 Q 1024 684.5 1022 699.5 Q 1019.5 708.5 1012.5 713 L 1005.5 715 L 1001.5 714 L 1002 715.5 L 1018.5 733 L 1036 747.5 Q 1037.3 752.8 1034.5 754 L 1026.5 755 Q 1011.2 747.8 1001 735.5 L 988 718.5 Q 984.8 714.2 985 706.5 L 988.5 702 L 1001.5 703 L 1008 698.5 Q 1010.6 695.6 1010 689.5 L 1006.5 685 L 997.5 684 Q 989.6 686.1 986 692.5 Q 979.6 701.6 977 714.5 L 975 725.5 L 975 733.5 L 974 734.5 L 974 744.5 L 972 750 Q 969.9 751.6 964.5 751 L 961 747.5 L 960 743.5 L 960 727.5 L 964 707.5 L 969 694.5 Q 973.6 684.6 981.5 678 L 995.5 671 Z " /><path fill="rgb(5,5,5)" stroke="rgb(5,5,5)" stroke-width="1" opacity="0.984313725490196" d="M 156.5 672 Q 165.1 670.9 167 676.5 Q 173.5 690.3 174 709 L 183.5 709 L 187 711.5 L 188 713.5 L 184.5 719 L 176 721 L 176 740.5 L 174 748.5 L 170.5 753 L 165.5 754 L 161 750.5 L 161 724.5 L 157.5 724 L 156.5 725 L 139.5 727 L 138 728.5 L 129 753 Q 126.9 754.6 121.5 754 L 119 753 Q 117.3 750.6 118 744.5 L 124 727.5 L 138 697.5 L 150 677.5 L 154.5 673 L 156.5 672 Z M 157 690 L 145 715 L 160 712 L 159 709 L 158 693 L 157 690 Z " /><path fill="rgb(5,5,5)" stroke="rgb(5,5,5)" stroke-width="1" opacity="0.984313725490196" d="M 844.5 673 L 855.5 674 L 860 677.5 L 859 684 L 853.5 686 L 841.5 686 L 840.5 687 L 821 688 L 814 718.5 L 810 747.5 L 805.5 753 Q 798.3 754.3 797 749.5 L 796 738.5 L 797 737.5 L 797 729.5 L 801 707.5 L 806 690.5 L 793.5 690 L 792.5 691 L 780.5 691 L 776.5 690 L 774 687.5 Q 773 681 777.5 680 L 798.5 676 L 819.5 675 L 820.5 674 L 843.5 674 L 844.5 673 Z " /><path fill="rgb(5,5,5)" stroke="rgb(5,5,5)" stroke-width="1" opacity="0.984313725490196" d="M 497.5 675 Q 520.8 672.7 529 685.5 L 534 695.5 L 535 706.5 L 531 724.5 Q 526.1 737.1 516.5 745 L 502.5 753 L 487.5 754 Q 477.9 751.6 473 744.5 L 467 730.5 L 467 717.5 Q 469.3 707.3 475 700.5 L 475 693.5 L 483.5 682 L 497.5 675 Z M 503 688 L 494 691 L 494 695 L 486 706 L 481 722 Q 479 731 483 736 L 489 740 Q 500 741 505 736 L 516 723 L 521 707 Q 521 699 518 695 Q 514 687 503 688 Z " /><path fill="rgb(5,5,5)" stroke="rgb(5,5,5)" stroke-width="1" opacity="0.984313725490196" d="M 896.5 675 Q 917.8 672.8 926 683.5 Q 934.7 692.3 933 711.5 Q 928.7 735.2 912.5 747 Q 903.9 754.9 886.5 754 Q 877.9 752.1 873 746.5 Q 864.5 738 865 720.5 Q 867.1 707.6 874 699.5 L 874 692.5 Q 877 685 883.5 681 L 896.5 675 Z M 901 688 L 895 690 L 884 707 L 880 719 Q 882 725 879 727 L 881 736 L 887 740 L 895 740 L 905 735 Q 915 726 919 710 Q 921 698 916 694 Q 912 687 901 688 Z " /><path fill="rgb(5,5,5)" stroke="rgb(5,5,5)" stroke-width="1" opacity="0.984313725490196" d="M 1116.5 675 L 1129.5 675 L 1135 678.5 L 1136 684.5 L 1133.5 687 L 1129.5 688 L 1122.5 688 L 1121.5 689 L 1091.5 693 Q 1082.4 695.4 1078 702.5 L 1075 710.5 L 1076.5 710 L 1096.5 706 L 1105.5 706 Q 1108 707 1107 711.5 L 1097.5 718 L 1084.5 722 L 1075.5 723 L 1074 724.5 L 1073 736.5 L 1074 739 L 1093.5 735 L 1111.5 728 L 1115 730.5 L 1115 733.5 L 1109.5 740 L 1093.5 750 L 1078.5 753 L 1069.5 750 L 1065 745.5 Q 1057.5 735 1060 714.5 Q 1062.8 697.3 1073.5 688 L 1087.5 680 L 1116.5 675 Z " /><path fill="rgb(5,5,5)" stroke="rgb(5,5,5)" stroke-width="1" opacity="0.984313725490196" d="M 424.5 682 L 443.5 682 L 449 686.5 Q 450 691 447.5 692 L 439.5 695 L 427 696 L 421 734.5 L 419 740.5 L 426.5 741 Q 427.8 738.8 432.5 740 L 437 743.5 Q 437.5 747.5 434.5 748 Q 418.3 757.8 393.5 759 L 390 758 L 389 751.5 L 393.5 746 L 403.5 744 L 405 742.5 L 412 698 L 402.5 698 L 398 694.5 Q 398.1 688.1 402.5 686 L 424.5 682 Z " /><path fill="rgb(5,5,5)" stroke="rgb(5,5,5)" stroke-width="1" opacity="0.984313725490196" d="M 102 800 L 138.5 800 L 140 801.5 L 137 813.5 L 137 843.5 L 139 853.5 L 143 863.5 Q 148.7 873.9 157.5 881 Q 167.7 889.8 183.5 893 L 976.5 893 Q 998.4 888.9 1010 874.5 L 1019 860.5 L 1023 847.5 L 1023 809.5 L 1021 800 L 1057.5 800 L 1059 801.5 Q 1057.5 807 1060 808.5 L 1060 848.5 L 1054 872.5 L 1039 898 Q 1036.3 896.9 1037 899.5 Q 1027.4 910.4 1014.5 918 L 1002.5 924 L 990.5 928 L 985.5 928 L 978.5 930 L 181.5 930 Q 141.6 922.9 121 896.5 Q 108.9 882.1 103 861.5 L 100 844.5 L 100 812.5 L 102 800 Z " /><path fill="rgb(0,0,0)" stroke="rgb(0,0,0)" stroke-width="1" opacity="0" d="M 0 0 L 1172 0 L 1172 967 L 0 967 L 0 0 Z M 566 32 L 544 36 L 519 45 Q 495 56 478 73 Q 456 93 444 122 L 438 139 L 433 164 L 433 185 L 436 191 Q 440 197 449 198 L 454 198 L 462 195 L 469 186 L 471 159 L 476 141 Q 483 123 494 110 Q 508 92 529 81 L 549 73 L 568 69 L 594 69 L 613 73 Q 636 81 653 95 Q 667 107 677 125 L 687 149 L 691 169 L 691 191 L 687 211 Q 679 235 664 253 Q 649 271 626 281 Q 614 287 600 289 L 578 290 L 568 295 L 562 305 L 562 406 L 559 408 L 518 423 L 504 427 L 493 432 L 379 472 L 310 498 L 307 498 L 232 526 L 182 543 Q 161 551 147 564 Q 118 588 105 628 L 144 628 L 160 603 Q 173 587 194 578 L 580 439 L 671 472 L 674 472 L 707 485 L 721 489 L 743 498 L 760 503 L 832 530 L 835 530 L 904 556 L 932 565 L 943 570 L 960 575 L 978 583 L 988 590 Q 1006 604 1015 627 L 1017 628 L 1055 628 Q 1046 595 1024 575 Q 1025 572 1022 573 L 1022 571 L 1020 571 L 1020 569 L 998 552 L 982 544 L 802 480 L 741 457 L 727 453 L 691 439 L 677 435 L 666 430 L 638 421 L 602 407 L 599 407 L 599 326 Q 620 324 638 316 Q 660 306 678 291 Q 696 275 709 253 L 722 223 L 726 207 L 727 192 L 728 191 L 728 169 L 727 168 L 726 153 L 719 128 Q 709 101 692 83 Q 670 56 636 42 L 614 35 L 603 33 Q 596 35 595 32 L 566 32 Z M 620 668 L 617 673 L 613 702 L 607 731 L 599 696 Q 597 687 592 683 L 585 683 L 581 685 L 572 700 L 562 722 L 555 744 L 555 752 L 560 755 L 566 754 L 570 748 L 582 710 L 587 700 L 594 734 L 598 745 Q 597 751 599 755 Q 601 760 609 758 L 614 751 L 622 726 L 628 698 L 630 678 L 631 677 L 630 672 Q 628 667 620 668 Z M 260 669 Q 241 677 227 688 Q 218 694 214 706 Q 213 713 215 717 L 222 723 L 242 732 Q 244 731 243 734 L 232 739 L 215 743 L 212 746 L 213 753 L 219 756 Q 240 753 253 742 L 258 734 L 257 729 L 252 724 L 232 715 L 227 709 L 230 703 Q 239 693 252 687 L 262 685 L 267 682 Q 271 680 270 673 Q 268 668 260 669 Z M 313 669 L 311 670 L 307 674 L 298 700 L 290 732 L 290 745 L 294 750 L 300 749 L 308 720 L 329 719 L 341 717 L 338 735 L 338 751 L 339 753 Q 340 756 347 755 L 350 751 L 358 715 L 365 710 Q 366 703 361 702 L 366 682 L 365 675 L 361 671 L 357 672 L 352 678 L 346 701 L 344 703 L 329 704 L 328 705 L 318 705 L 317 706 L 312 706 L 319 680 Q 320 673 318 670 L 313 669 Z M 748 669 L 718 686 L 706 698 L 702 708 Q 701 715 705 719 L 712 724 L 732 733 L 723 738 L 701 744 L 700 748 L 702 754 L 708 756 Q 726 753 739 744 Q 746 740 746 730 L 742 725 L 722 716 L 716 711 L 717 705 Q 725 695 737 689 Q 741 685 750 685 L 757 681 L 759 677 L 757 670 Q 754 668 748 669 Z M 104 670 L 71 677 L 51 687 L 45 696 L 41 719 L 41 728 L 40 729 L 40 748 L 41 751 Q 43 754 49 752 Q 53 749 54 743 L 54 734 L 55 733 L 56 719 L 88 713 Q 92 712 91 707 L 84 702 L 76 702 L 60 705 L 58 706 Q 57 700 60 698 L 71 691 L 106 684 L 115 681 L 117 677 L 116 674 Q 113 669 104 670 Z M 996 671 L 982 678 Q 974 685 969 695 L 964 708 L 960 728 L 960 744 L 961 748 L 965 751 Q 970 752 972 750 L 974 745 L 974 735 L 975 734 L 975 726 L 977 715 Q 980 702 986 693 Q 990 686 998 684 L 1007 685 L 1010 690 Q 1011 696 1008 699 L 1002 703 L 989 702 L 985 707 Q 985 714 988 719 L 1001 736 Q 1011 748 1027 755 L 1035 754 Q 1037 753 1036 748 L 1019 733 L 1002 716 L 1002 714 L 1006 715 L 1013 713 Q 1020 709 1022 700 Q 1024 685 1018 678 Q 1012 669 996 671 Z M 157 672 L 155 673 L 150 678 L 138 698 L 124 728 L 118 745 Q 117 751 119 753 L 122 754 Q 127 755 129 753 L 138 729 L 140 727 L 157 725 L 158 724 L 161 725 L 161 751 L 166 754 L 171 753 L 174 749 L 176 741 L 176 721 L 185 719 L 188 714 L 187 712 L 184 709 L 174 709 Q 174 690 167 677 Q 165 671 157 672 Z M 845 673 L 844 674 L 821 674 L 820 675 L 799 676 L 778 680 Q 773 681 774 688 L 777 690 L 781 691 L 793 691 L 794 690 L 806 691 L 801 708 L 797 730 L 797 738 L 796 739 L 797 750 Q 798 754 806 753 L 810 748 L 814 719 L 821 688 L 841 687 L 842 686 L 854 686 L 859 684 L 860 678 L 856 674 L 845 673 Z M 498 675 L 484 682 L 475 694 L 475 701 Q 469 707 467 718 L 467 731 L 473 745 Q 478 752 488 754 L 503 753 L 517 745 Q 526 737 531 725 L 535 707 L 534 696 L 529 686 Q 521 673 498 675 Z M 897 675 L 884 681 Q 877 685 874 693 L 874 700 Q 867 708 865 721 Q 865 738 873 747 Q 878 752 887 754 Q 904 755 913 747 Q 929 735 933 712 Q 935 692 926 684 Q 918 673 897 675 Z M 1117 675 L 1088 680 L 1074 688 Q 1063 697 1060 715 Q 1058 735 1065 746 L 1070 750 L 1079 753 L 1094 750 L 1110 740 L 1115 734 L 1115 731 L 1112 728 L 1094 735 L 1074 739 L 1073 737 L 1074 725 L 1076 723 L 1085 722 L 1098 718 L 1107 712 Q 1108 707 1106 706 L 1097 706 L 1077 710 L 1075 711 L 1078 703 Q 1082 695 1092 693 L 1122 689 L 1123 688 L 1130 688 L 1134 687 L 1136 685 L 1135 679 L 1130 675 L 1117 675 Z M 425 682 L 403 686 Q 398 688 398 695 L 403 698 L 412 698 L 405 743 L 404 744 L 394 746 L 389 752 L 390 758 L 394 759 Q 418 758 435 748 Q 437 748 437 744 L 433 740 Q 428 739 427 741 L 419 741 L 421 735 L 427 696 L 440 695 L 448 692 Q 450 691 449 687 L 444 682 L 425 682 Z M 102 800 L 100 813 L 100 845 L 103 862 Q 109 882 121 897 Q 142 923 182 930 L 979 930 L 986 928 L 991 928 L 1003 924 L 1015 918 Q 1027 910 1037 900 Q 1036 897 1039 898 L 1054 873 L 1060 849 L 1060 809 Q 1058 807 1059 802 L 1058 800 L 1021 800 L 1023 810 L 1023 848 L 1019 861 L 1010 875 Q 998 889 977 893 L 184 893 Q 168 890 158 881 Q 149 874 143 864 L 139 854 L 137 844 L 137 814 L 140 802 L 139 800 L 102 800 Z " /><path fill="rgb(0,0,0)" stroke="rgb(0,0,0)" stroke-width="1" opacity="0" d="M 502.5 688 Q 514.2 687.3 518 694.5 Q 521.2 698.8 521 706.5 L 516 722.5 L 504.5 736 Q 499.8 741.3 488.5 740 L 483 735.5 Q 479.3 731.2 481 721.5 L 486 705.5 L 494 694.5 L 494 691 L 502.5 688 Z " /><path fill="rgb(0,0,0)" stroke="rgb(0,0,0)" stroke-width="1" opacity="0" d="M 900.5 688 Q 912 687 916 693.5 Q 920.7 698.3 919 709.5 Q 915.3 725.8 904.5 735 L 894.5 740 L 886.5 740 L 881 735.5 L 879 726.5 Q 881.7 724.8 880 718.5 L 884 706.5 L 894.5 690 L 900.5 688 Z " /><path fill="rgb(0,0,0)" stroke="rgb(0,0,0)" stroke-width="1" opacity="0" d="M 156.5 690 L 158 692.5 L 159 708.5 L 160 712 L 145 715 L 156.5 690 Z " /></svg>